{"title":"Jesse Stone - Stone Cold (2005) XviD - BDK","uid":4733488,"size":734226432,"categoryP":"video","categoryS":"movies","magnet":"?xt=urn:btih:60f3e9f0c6761fac849a19902a6aae037a3fcee8&amp;dn=Jesse+Stone+-+Stone+Cold+%282005%29+XviD+-+BDK&amp;tr=udp%3A%2F%2Ftracker.openbittorrent.com%3A80&amp;tr=udp%3A%2F%2Fopen.demonii.com%3A1337&amp;tr=udp%3A%2F%2Ftracker.coppersurfer.tk%3A6969&amp;tr=udp%3A%2F%2Fexodus.desync.com%3A6969","seeders":2,"leechers":0,"uploader":"akhiugo","files":-1,"time":1235157391,"description":"Release Date:\n20 February 2005 (USA)\n\nGenre:\nCrime | Drama | Mystery | Thriller\n\n\nIn the small town of Paradise, Massachusetts, the experienced Chief of Police Jesse Stone is investigating a murder and a rape case. When a series of murders happen with the same &quot;modus-operandi&quot;, Jesse discloses the identity of the killers. However, without the motive, proof or weapon, he has to wait for an opportunity to catch the murderers.\n\n\nIMDB Rating: 7.0/10 (1,298 Votes)\n\n\nGeneral\nComplete name                    : Stone_Cold-2005.avi\nFormat                           : AVI\nFormat/Info                      : Audio Video Interleave\nFile size                        : 700 MiB\nDuration                         : 1h 27mn\nOverall bit rate                 : 1 125 Kbps\nWriting application              : VirtualDubMod 1.5.4.1 (build 2178/release)\nWriting library                  : VirtualDubMod build 2178/release\n\nVideo\nFormat                           : MPEG-4 Visual\nFormat settings, BVOP            : No\nFormat settings, QPel            : No\nFormat settings, GMC             : No warppoints\nFormat settings, Matrix          : Default\nCodec ID                         : XVID\nCodec ID/Hint                    : XviD\nDuration                         : 1h 27mn\nBit rate                         : 981 Kbps\nWidth                            : 608 pixels\nHeight                           : 352 pixels\nDisplay aspect ratio             : 16/9\nFrame rate                       : 23.976 fps\nResolution                       : 24 bits\nColorimetry                      : 4:2:0\nScan type                        : Progressive\nBits/(Pixel*Frame)               : 0.191\nStream size                      : 610 MiB (87%)\nWriting library                  : XviD 1.0.3 (UTC 2004-12-20)\n\nAudio\nFormat                           : MPEG Audio\nFormat version                   : Version 1\nFormat profile                   : Layer 3\nCodec ID                         : 55\nCodec ID/Hint                    : MP3\nDuration                         : 1h 27mn\nBit rate mode                    : Variable\nBit rate                         : 131 Kbps\nMinimum bit rate                 : 128 Kbps\nChannel(s)                       : 2 channels\nSampling rate                    : 48.0 KHz\nResolution                       : 16 bits\nStream size                      : 81.8 MiB (12%)\nAlignment                        : Aligned on interleaves\nInterleave, duration             : 24 ms (0.58 video frame)\nInterleave, preload duration     : 140 ms\nWriting library                  : LAME3.96r\nEncoding settings                : ABR\nLanguage                         : English\n\n\n\nPlease help your fellow pirates by seeding after download!","torrent":{"xt":"urn:btih:60f3e9f0c6761fac849a19902a6aae037a3fcee8","amp;dn":"Jesse+Stone+-+Stone+Cold+%282005%29+XviD+-+BDK","amp;tr":["udp%3A%2F%2Ftracker.openbittorrent.com%3A80","udp%3A%2F%2Fopen.demonii.com%3A1337","udp%3A%2F%2Ftracker.coppersurfer.tk%3A6969","udp%3A%2F%2Fexodus.desync.com%3A6969"],"infoHash":"60f3e9f0c6761fac849a19902a6aae037a3fcee8","infoHashBuffer":{"type":"Buffer","data":[96,243,233,240,198,118,31,172,132,154,25,144,42,106,174,3,122,63,206,232]},"announce":[],"urlList":[]}}